<?xml version="1.0" encoding="iso-8859-1"?>
<!-- Generator: Adobe Illustrator 19.0.0, SVG Export Plug-In . SVG Version: 6.00 Build 0)  -->
<svg version="1.1" id="Layer_1" xmlns="http://www.w3.org/2000/svg" xmlns:xlink="http://www.w3.org/1999/xlink" x="0px" y="0px"
	 viewBox="0 0 297 297" style="enable-background:new 0 0 297 297;" xml:space="preserve">
<g id="XMLID_29_">
	<g>
		<path style="fill:#99ABD5;" d="M263.01,70.88v216.03H95.21v-20.3h143.51c2.79,0,5.04-2.26,5.04-5.05V70.88H263.01z"/>
		<path style="fill:#B8C9F1;" d="M233.68,40.48v216.04H65.88v-20.31h140.96c2.79,0,5.05-2.25,5.05-5.04V40.48H233.68z"/>
		<polygon style="fill:#BDC3C7;" points="65.73,17.22 65.73,41.82 41.13,41.82 53.43,29.52 		"/>
		<path style="fill:#ECF0F1;" d="M201.8,10.09v216.03H34V51.91h36.77c1.34,0,2.62-0.54,3.57-1.48c0.95-0.95,1.48-2.23,1.48-3.57
			V10.09H201.8z"/>
		<path d="M273.09,65.83v226.13c0,2.78-2.25,5.04-5.04,5.04H90.16c-2.78,0-5.04-2.26-5.04-5.04v-25.35H60.84
			c-2.79,0-5.05-2.26-5.05-5.05v-25.35H28.96c-2.79,0-5.05-2.25-5.05-5.04V46.86c0-1.34,0.53-2.62,1.48-3.57L67.21,1.48
			C68.15,0.53,69.43,0,70.77,0h136.07c2.79,0,5.05,2.26,5.05,5.04v25.35h26.83c2.79,0,5.04,2.26,5.04,5.05v25.35h24.29
			C270.84,60.79,273.09,63.04,273.09,65.83z M263.01,286.91V70.88h-19.25v190.68c0,2.79-2.25,5.05-5.04,5.05H95.21v20.3
			L263.01,286.91L263.01,286.91z M233.68,256.52V40.48h-21.79v190.69c0,2.79-2.26,5.04-5.05,5.04H65.88v20.31H233.68z M201.8,226.12
			V10.09H75.82v36.77c0,1.34-0.53,2.62-1.48,3.57c-0.95,0.94-2.23,1.48-3.57,1.48H34v174.21L201.8,226.12L201.8,226.12z
			 M65.73,41.82v-24.6l-12.3,12.3l-12.3,12.3H65.73z"/>
	</g>
</g>
<g>
</g>
<g>
</g>
<g>
</g>
<g>
</g>
<g>
</g>
<g>
</g>
<g>
</g>
<g>
</g>
<g>
</g>
<g>
</g>
<g>
</g>
<g>
</g>
<g>
</g>
<g>
</g>
<g>
</g>
</svg>
